<svg id="visual" viewBox="0 0 900 150" width="900" height="150" xmlns="http://www.w3.org/2000/svg" xmlns:xlink="http://www.w3.org/1999/xlink" version="1.1"><rect x="0" y="0" width="900" height="150" fill="#181818"></rect><path d="M0 145L11.5 139.2C23 133.3 46 121.7 69 117.3C92 113 115 116 138.2 110.5C161.3 105 184.7 91 207.8 90C231 89 254 101 277 108.3C300 115.7 323 118.3 346 115.7C369 113 392 105 415.2 106.7C438.3 108.3 461.7 119.7 484.8 123.2C508 126.7 531 122.3 554 120.7C577 119 600 120 623 118.3C646 116.7 669 112.3 692.2 111.7C715.3 111 738.7 114 761.8 115.7C785 117.3 808 117.7 831 119C854 120.3 877 122.7 888.5 123.8L900 125L900 0L888.5 0C877 0 854 0 831 0C808 0 785 0 761.8 0C738.7 0 715.3 0 692.2 0C669 0 646 0 623 0C600 0 577 0 554 0C531 0 508 0 484.8 0C461.7 0 438.3 0 415.2 0C392 0 369 0 346 0C323 0 300 0 277 0C254 0 231 0 207.8 0C184.7 0 161.3 0 138.2 0C115 0 92 0 69 0C46 0 23 0 11.5 0L0 0Z" fill="#d15004"></path><path d="M0 69L11.5 77.3C23 85.7 46 102.3 69 110.8C92 119.3 115 119.7 138.2 118.7C161.3 117.7 184.7 115.3 207.8 115.5C231 115.7 254 118.3 277 110.7C300 103 323 85 346 85C369 85 392 103 415.2 108.5C438.3 114 461.7 107 484.8 103C508 99 531 98 554 101.7C577 105.3 600 113.7 623 119.5C646 125.3 669 128.7 692.2 129C715.3 129.3 738.7 126.7 761.8 122.2C785 117.7 808 111.3 831 111.2C854 111 877 117 888.5 120L900 123L900 0L888.5 0C877 0 854 0 831 0C808 0 785 0 761.8 0C738.7 0 715.3 0 692.2 0C669 0 646 0 623 0C600 0 577 0 554 0C531 0 508 0 484.8 0C461.7 0 438.3 0 415.2 0C392 0 369 0 346 0C323 0 300 0 277 0C254 0 231 0 207.8 0C184.7 0 161.3 0 138.2 0C115 0 92 0 69 0C46 0 23 0 11.5 0L0 0Z" fill="#d75c01"></path><path d="M0 56L11.5 59.3C23 62.7 46 69.3 69 78.7C92 88 115 100 138.2 107.3C161.3 114.7 184.7 117.3 207.8 117.5C231 117.7 254 115.3 277 106.3C300 97.3 323 81.7 346 76.7C369 71.7 392 77.3 415.2 81C438.3 84.7 461.7 86.3 484.8 90.8C508 95.3 531 102.7 554 99.3C577 96 600 82 623 83.3C646 84.7 669 101.3 692.2 106.8C715.3 112.3 738.7 106.7 761.8 96.3C785 86 808 71 831 63.7C854 56.3 877 56.7 888.5 56.8L900 57L900 0L888.5 0C877 0 854 0 831 0C808 0 785 0 761.8 0C738.7 0 715.3 0 692.2 0C669 0 646 0 623 0C600 0 577 0 554 0C531 0 508 0 484.8 0C461.7 0 438.3 0 415.2 0C392 0 369 0 346 0C323 0 300 0 277 0C254 0 231 0 207.8 0C184.7 0 161.3 0 138.2 0C115 0 92 0 69 0C46 0 23 0 11.5 0L0 0Z" fill="#dc6700"></path><path d="M0 86L11.5 86.2C23 86.3 46 86.7 69 85.8C92 85 115 83 138.2 77.2C161.3 71.3 184.7 61.7 207.8 60.7C231 59.7 254 67.3 277 72C300 76.7 323 78.3 346 80.2C369 82 392 84 415.2 81.8C438.3 79.7 461.7 73.3 484.8 69.2C508 65 531 63 554 69C577 75 600 89 623 89.8C646 90.7 669 78.3 692.2 71C715.3 63.7 738.7 61.3 761.8 60.3C785 59.3 808 59.7 831 59.3C854 59 877 58 888.5 57.5L900 57L900 0L888.5 0C877 0 854 0 831 0C808 0 785 0 761.8 0C738.7 0 715.3 0 692.2 0C669 0 646 0 623 0C600 0 577 0 554 0C531 0 508 0 484.8 0C461.7 0 438.3 0 415.2 0C392 0 369 0 346 0C323 0 300 0 277 0C254 0 231 0 207.8 0C184.7 0 161.3 0 138.2 0C115 0 92 0 69 0C46 0 23 0 11.5 0L0 0Z" fill="#e17200"></path><path d="M0 62L11.5 66.3C23 70.7 46 79.3 69 85.3C92 91.3 115 94.7 138.2 90.2C161.3 85.7 184.7 73.3 207.8 67.7C231 62 254 63 277 67.2C300 71.3 323 78.7 346 76.7C369 74.7 392 63.3 415.2 63.5C438.3 63.7 461.7 75.3 484.8 83C508 90.7 531 94.3 554 95C577 95.7 600 93.3 623 89.8C646 86.3 669 81.7 692.2 75.7C715.3 69.7 738.7 62.3 761.8 60.7C785 59 808 63 831 65.8C854 68.7 877 70.3 888.5 71.2L900 72L900 0L888.5 0C877 0 854 0 831 0C808 0 785 0 761.8 0C738.7 0 715.3 0 692.2 0C669 0 646 0 623 0C600 0 577 0 554 0C531 0 508 0 484.8 0C461.7 0 438.3 0 415.2 0C392 0 369 0 346 0C323 0 300 0 277 0C254 0 231 0 207.8 0C184.7 0 161.3 0 138.2 0C115 0 92 0 69 0C46 0 23 0 11.5 0L0 0Z" fill="#e67d00"></path><path d="M0 62L11.5 60.8C23 59.7 46 57.3 69 53.5C92 49.7 115 44.3 138.2 45C161.3 45.7 184.7 52.3 207.8 53.8C231 55.3 254 51.7 277 56.2C300 60.7 323 73.3 346 76.5C369 79.7 392 73.3 415.2 71.5C438.3 69.7 461.7 72.3 484.8 70.2C508 68 531 61 554 63C577 65 600 76 623 80.3C646 84.7 669 82.3 692.2 82C715.3 81.7 738.7 83.3 761.8 77C785 70.7 808 56.3 831 56.3C854 56.3 877 70.7 888.5 77.8L900 85L900 0L888.5 0C877 0 854 0 831 0C808 0 785 0 761.8 0C738.7 0 715.3 0 692.2 0C669 0 646 0 623 0C600 0 577 0 554 0C531 0 508 0 484.8 0C461.7 0 438.3 0 415.2 0C392 0 369 0 346 0C323 0 300 0 277 0C254 0 231 0 207.8 0C184.7 0 161.3 0 138.2 0C115 0 92 0 69 0C46 0 23 0 11.5 0L0 0Z" fill="#ea8800"></path><path d="M0 77L11.5 76.3C23 75.7 46 74.3 69 66.3C92 58.3 115 43.7 138.2 43.3C161.3 43 184.7 57 207.8 62.5C231 68 254 65 277 63.2C300 61.3 323 60.7 346 57.7C369 54.7 392 49.3 415.2 46.5C438.3 43.7 461.7 43.3 484.8 48.8C508 54.3 531 65.7 554 68.5C577 71.3 600 65.7 623 60.8C646 56 669 52 692.2 51.5C715.3 51 738.7 54 761.8 58.7C785 63.3 808 69.7 831 68.8C854 68 877 60 888.5 56L900 52L900 0L888.5 0C877 0 854 0 831 0C808 0 785 0 761.8 0C738.7 0 715.3 0 692.2 0C669 0 646 0 623 0C600 0 577 0 554 0C531 0 508 0 484.8 0C461.7 0 438.3 0 415.2 0C392 0 369 0 346 0C323 0 300 0 277 0C254 0 231 0 207.8 0C184.7 0 161.3 0 138.2 0C115 0 92 0 69 0C46 0 23 0 11.5 0L0 0Z" fill="#ee9300"></path><path d="M0 59L11.5 57.3C23 55.7 46 52.3 69 48.5C92 44.7 115 40.3 138.2 41.5C161.3 42.7 184.7 49.3 207.8 53.2C231 57 254 58 277 58.3C300 58.7 323 58.3 346 57.7C369 57 392 56 415.2 54C438.3 52 461.7 49 484.8 50.3C508 51.7 531 57.3 554 54.3C577 51.3 600 39.7 623 40.5C646 41.3 669 54.7 692.2 58.5C715.3 62.3 738.7 56.7 761.8 52.2C785 47.7 808 44.3 831 44.8C854 45.3 877 49.7 888.5 51.8L900 54L900 0L888.5 0C877 0 854 0 831 0C808 0 785 0 761.8 0C738.7 0 715.3 0 692.2 0C669 0 646 0 623 0C600 0 577 0 554 0C531 0 508 0 484.8 0C461.7 0 438.3 0 415.2 0C392 0 369 0 346 0C323 0 300 0 277 0C254 0 231 0 207.8 0C184.7 0 161.3 0 138.2 0C115 0 92 0 69 0C46 0 23 0 11.5 0L0 0Z" fill="#f29e00"></path><path d="M0 30L11.5 33.2C23 36.3 46 42.7 69 45.2C92 47.7 115 46.3 138.2 45.5C161.3 44.7 184.7 44.3 207.8 43.2C231 42 254 40 277 37C300 34 323 30 346 27.2C369 24.3 392 22.7 415.2 27.3C438.3 32 461.7 43 484.8 42.3C508 41.7 531 29.3 554 26.3C577 23.3 600 29.7 623 29.8C646 30 669 24 692.2 23C715.3 22 738.7 26 761.8 29.2C785 32.3 808 34.7 831 37.7C854 40.7 877 44.3 888.5 46.2L900 48L900 0L888.5 0C877 0 854 0 831 0C808 0 785 0 761.8 0C738.7 0 715.3 0 692.2 0C669 0 646 0 623 0C600 0 577 0 554 0C531 0 508 0 484.8 0C461.7 0 438.3 0 415.2 0C392 0 369 0 346 0C323 0 300 0 277 0C254 0 231 0 207.8 0C184.7 0 161.3 0 138.2 0C115 0 92 0 69 0C46 0 23 0 11.5 0L0 0Z" fill="#f5a900"></path><path d="M0 28L11.5 28.2C23 28.3 46 28.7 69 30.3C92 32 115 35 138.2 34.3C161.3 33.7 184.7 29.3 207.8 29.3C231 29.3 254 33.7 277 34.8C300 36 323 34 346 29.7C369 25.3 392 18.7 415.2 19.3C438.3 20 461.7 28 484.8 28.7C508 29.3 531 22.7 554 20.2C577 17.7 600 19.3 623 18.5C646 17.7 669 14.3 692.2 14C715.3 13.7 738.7 16.3 761.8 17.7C785 19 808 19 831 20.5C854 22 877 25 888.5 26.5L900 28L900 0L888.5 0C877 0 854 0 831 0C808 0 785 0 761.8 0C738.7 0 715.3 0 692.2 0C669 0 646 0 623 0C600 0 577 0 554 0C531 0 508 0 484.8 0C461.7 0 438.3 0 415.2 0C392 0 369 0 346 0C323 0 300 0 277 0C254 0 231 0 207.8 0C184.7 0 161.3 0 138.2 0C115 0 92 0 69 0C46 0 23 0 11.5 0L0 0Z" fill="#f7b500"></path><path d="M0 33L11.5 32C23 31 46 29 69 24.8C92 20.7 115 14.3 138.2 15.3C161.3 16.3 184.7 24.7 207.8 27.7C231 30.7 254 28.3 277 26C300 23.7 323 21.3 346 19.5C369 17.7 392 16.3 415.2 15C438.3 13.7 461.7 12.3 484.8 14.3C508 16.3 531 21.7 554 23C577 24.3 600 21.7 623 18.2C646 14.7 669 10.3 692.2 11.2C715.3 12 738.7 18 761.8 20.8C785 23.7 808 23.3 831 20.8C854 18.3 877 13.7 888.5 11.3L900 9L900 0L888.5 0C877 0 854 0 831 0C808 0 785 0 761.8 0C738.7 0 715.3 0 692.2 0C669 0 646 0 623 0C600 0 577 0 554 0C531 0 508 0 484.8 0C461.7 0 438.3 0 415.2 0C392 0 369 0 346 0C323 0 300 0 277 0C254 0 231 0 207.8 0C184.7 0 161.3 0 138.2 0C115 0 92 0 69 0C46 0 23 0 11.5 0L0 0Z" fill="#f9c000"></path><path d="M0 0L11.5 2.3C23 4.7 46 9.3 69 12.7C92 16 115 18 138.2 16.3C161.3 14.7 184.7 9.3 207.8 8.3C231 7.3 254 10.7 277 10C300 9.3 323 4.7 346 3C369 1.3 392 2.7 415.2 3.8C438.3 5 461.7 6 484.8 7.8C508 9.7 531 12.3 554 14.2C577 16 600 17 623 16.8C646 16.7 669 15.3 692.2 13.5C715.3 11.7 738.7 9.3 761.8 9.3C785 9.3 808 11.7 831 11.8C854 12 877 10 888.5 9L900 8L900 0L888.5 0C877 0 854 0 831 0C808 0 785 0 761.8 0C738.7 0 715.3 0 692.2 0C669 0 646 0 623 0C600 0 577 0 554 0C531 0 508 0 484.8 0C461.7 0 438.3 0 415.2 0C392 0 369 0 346 0C323 0 300 0 277 0C254 0 231 0 207.8 0C184.7 0 161.3 0 138.2 0C115 0 92 0 69 0C46 0 23 0 11.5 0L0 0Z" fill="#fbcb04"></path></svg>