<svg id="visual" viewBox="0 0 900 150" width="900" height="150" xmlns="http://www.w3.org/2000/svg" xmlns:xlink="http://www.w3.org/1999/xlink" version="1.1"><rect x="0" y="0" width="900" height="150" fill="#181818"></rect><path d="M0 29L11.5 25.3C23 21.7 46 14.3 69 23.2C92 32 115 57 138.2 57.5C161.3 58 184.7 34 207.8 22.5C231 11 254 12 277 17.3C300 22.7 323 32.3 346 35.3C369 38.3 392 34.7 415.2 37.8C438.3 41 461.7 51 484.8 46.3C508 41.7 531 22.3 554 19.7C577 17 600 31 623 30.7C646 30.3 669 15.7 692.2 16.8C715.3 18 738.7 35 761.8 44.3C785 53.7 808 55.3 831 56C854 56.7 877 56.3 888.5 56.2L900 56L900 151L888.5 151C877 151 854 151 831 151C808 151 785 151 761.8 151C738.7 151 715.3 151 692.2 151C669 151 646 151 623 151C600 151 577 151 554 151C531 151 508 151 484.8 151C461.7 151 438.3 151 415.2 151C392 151 369 151 346 151C323 151 300 151 277 151C254 151 231 151 207.8 151C184.7 151 161.3 151 138.2 151C115 151 92 151 69 151C46 151 23 151 11.5 151L0 151Z" fill="#d15004"></path><path d="M0 54L11.5 55.5C23 57 46 60 69 58C92 56 115 49 138.2 51.2C161.3 53.3 184.7 64.7 207.8 61.5C231 58.3 254 40.7 277 36C300 31.3 323 39.7 346 43.7C369 47.7 392 47.3 415.2 43.8C438.3 40.3 461.7 33.7 484.8 30.7C508 27.7 531 28.3 554 30.5C577 32.7 600 36.3 623 36.7C646 37 669 34 692.2 33.3C715.3 32.7 738.7 34.3 761.8 43C785 51.7 808 67.3 831 67.5C854 67.7 877 52.3 888.5 44.7L900 37L900 151L888.5 151C877 151 854 151 831 151C808 151 785 151 761.8 151C738.7 151 715.3 151 692.2 151C669 151 646 151 623 151C600 151 577 151 554 151C531 151 508 151 484.8 151C461.7 151 438.3 151 415.2 151C392 151 369 151 346 151C323 151 300 151 277 151C254 151 231 151 207.8 151C184.7 151 161.3 151 138.2 151C115 151 92 151 69 151C46 151 23 151 11.5 151L0 151Z" fill="#d75c01"></path><path d="M0 88L11.5 85.8C23 83.7 46 79.3 69 75.2C92 71 115 67 138.2 60.8C161.3 54.7 184.7 46.3 207.8 50.7C231 55 254 72 277 74.3C300 76.7 323 64.3 346 62.7C369 61 392 70 415.2 69.5C438.3 69 461.7 59 484.8 55.3C508 51.7 531 54.3 554 59.3C577 64.3 600 71.7 623 71.2C646 70.7 669 62.3 692.2 62.3C715.3 62.3 738.7 70.7 761.8 76C785 81.3 808 83.7 831 74.3C854 65 877 44 888.5 33.5L900 23L900 151L888.5 151C877 151 854 151 831 151C808 151 785 151 761.8 151C738.7 151 715.3 151 692.2 151C669 151 646 151 623 151C600 151 577 151 554 151C531 151 508 151 484.8 151C461.7 151 438.3 151 415.2 151C392 151 369 151 346 151C323 151 300 151 277 151C254 151 231 151 207.8 151C184.7 151 161.3 151 138.2 151C115 151 92 151 69 151C46 151 23 151 11.5 151L0 151Z" fill="#dc6700"></path><path d="M0 89L11.5 87.3C23 85.7 46 82.3 69 83C92 83.7 115 88.3 138.2 89.3C161.3 90.3 184.7 87.7 207.8 82.8C231 78 254 71 277 71.7C300 72.3 323 80.7 346 76C369 71.3 392 53.7 415.2 55.5C438.3 57.3 461.7 78.7 484.8 79C508 79.3 531 58.7 554 51.3C577 44 600 50 623 60.7C646 71.3 669 86.7 692.2 89.3C715.3 92 738.7 82 761.8 79.8C785 77.7 808 83.3 831 80.7C854 78 877 67 888.5 61.5L900 56L900 151L888.5 151C877 151 854 151 831 151C808 151 785 151 761.8 151C738.7 151 715.3 151 692.2 151C669 151 646 151 623 151C600 151 577 151 554 151C531 151 508 151 484.8 151C461.7 151 438.3 151 415.2 151C392 151 369 151 346 151C323 151 300 151 277 151C254 151 231 151 207.8 151C184.7 151 161.3 151 138.2 151C115 151 92 151 69 151C46 151 23 151 11.5 151L0 151Z" fill="#e17200"></path><path d="M0 96L11.5 92.8C23 89.7 46 83.3 69 78.5C92 73.7 115 70.3 138.2 69.3C161.3 68.3 184.7 69.7 207.8 66.3C231 63 254 55 277 52.5C300 50 323 53 346 55C369 57 392 58 415.2 65.3C438.3 72.7 461.7 86.3 484.8 94.3C508 102.3 531 104.7 554 99.7C577 94.7 600 82.3 623 73.3C646 64.3 669 58.7 692.2 65C715.3 71.3 738.7 89.7 761.8 93C785 96.3 808 84.7 831 82.2C854 79.7 877 86.3 888.5 89.7L900 93L900 151L888.5 151C877 151 854 151 831 151C808 151 785 151 761.8 151C738.7 151 715.3 151 692.2 151C669 151 646 151 623 151C600 151 577 151 554 151C531 151 508 151 484.8 151C461.7 151 438.3 151 415.2 151C392 151 369 151 346 151C323 151 300 151 277 151C254 151 231 151 207.8 151C184.7 151 161.3 151 138.2 151C115 151 92 151 69 151C46 151 23 151 11.5 151L0 151Z" fill="#e67d00"></path><path d="M0 74L11.5 75C23 76 46 78 69 82.5C92 87 115 94 138.2 98.5C161.3 103 184.7 105 207.8 98.7C231 92.3 254 77.7 277 72.8C300 68 323 73 346 79.5C369 86 392 94 415.2 94.5C438.3 95 461.7 88 484.8 89.3C508 90.7 531 100.3 554 98C577 95.7 600 81.3 623 75C646 68.7 669 70.3 692.2 70.3C715.3 70.3 738.7 68.7 761.8 69.7C785 70.7 808 74.3 831 77C854 79.7 877 81.3 888.5 82.2L900 83L900 151L888.5 151C877 151 854 151 831 151C808 151 785 151 761.8 151C738.7 151 715.3 151 692.2 151C669 151 646 151 623 151C600 151 577 151 554 151C531 151 508 151 484.8 151C461.7 151 438.3 151 415.2 151C392 151 369 151 346 151C323 151 300 151 277 151C254 151 231 151 207.8 151C184.7 151 161.3 151 138.2 151C115 151 92 151 69 151C46 151 23 151 11.5 151L0 151Z" fill="#ea8800"></path><path d="M0 92L11.5 89.5C23 87 46 82 69 80.2C92 78.3 115 79.7 138.2 79C161.3 78.3 184.7 75.7 207.8 80.3C231 85 254 97 277 100C300 103 323 97 346 91.8C369 86.7 392 82.3 415.2 83C438.3 83.7 461.7 89.3 484.8 92.2C508 95 531 95 554 92.3C577 89.7 600 84.3 623 80.5C646 76.7 669 74.3 692.2 80.5C715.3 86.7 738.7 101.3 761.8 103.2C785 105 808 94 831 90.5C854 87 877 91 888.5 93L900 95L900 151L888.5 151C877 151 854 151 831 151C808 151 785 151 761.8 151C738.7 151 715.3 151 692.2 151C669 151 646 151 623 151C600 151 577 151 554 151C531 151 508 151 484.8 151C461.7 151 438.3 151 415.2 151C392 151 369 151 346 151C323 151 300 151 277 151C254 151 231 151 207.8 151C184.7 151 161.3 151 138.2 151C115 151 92 151 69 151C46 151 23 151 11.5 151L0 151Z" fill="#ee9300"></path><path d="M0 82L11.5 82.2C23 82.3 46 82.7 69 83.2C92 83.7 115 84.3 138.2 87.5C161.3 90.7 184.7 96.3 207.8 98.5C231 100.7 254 99.3 277 96C300 92.7 323 87.3 346 89.7C369 92 392 102 415.2 108.5C438.3 115 461.7 118 484.8 116.8C508 115.7 531 110.3 554 108C577 105.7 600 106.3 623 109C646 111.7 669 116.3 692.2 114C715.3 111.7 738.7 102.3 761.8 100.3C785 98.3 808 103.7 831 102.5C854 101.3 877 93.7 888.5 89.8L900 86L900 151L888.5 151C877 151 854 151 831 151C808 151 785 151 761.8 151C738.7 151 715.3 151 692.2 151C669 151 646 151 623 151C600 151 577 151 554 151C531 151 508 151 484.8 151C461.7 151 438.3 151 415.2 151C392 151 369 151 346 151C323 151 300 151 277 151C254 151 231 151 207.8 151C184.7 151 161.3 151 138.2 151C115 151 92 151 69 151C46 151 23 151 11.5 151L0 151Z" fill="#f29e00"></path><path d="M0 118L11.5 118.5C23 119 46 120 69 118.7C92 117.3 115 113.7 138.2 112.5C161.3 111.3 184.7 112.7 207.8 111.2C231 109.7 254 105.3 277 107.3C300 109.3 323 117.7 346 119.8C369 122 392 118 415.2 117.7C438.3 117.3 461.7 120.7 484.8 118.7C508 116.7 531 109.3 554 106.3C577 103.3 600 104.7 623 109C646 113.3 669 120.7 692.2 124C715.3 127.3 738.7 126.7 761.8 123.8C785 121 808 116 831 110.7C854 105.3 877 99.7 888.5 96.8L900 94L900 151L888.5 151C877 151 854 151 831 151C808 151 785 151 761.8 151C738.7 151 715.3 151 692.2 151C669 151 646 151 623 151C600 151 577 151 554 151C531 151 508 151 484.8 151C461.7 151 438.3 151 415.2 151C392 151 369 151 346 151C323 151 300 151 277 151C254 151 231 151 207.8 151C184.7 151 161.3 151 138.2 151C115 151 92 151 69 151C46 151 23 151 11.5 151L0 151Z" fill="#f5a900"></path><path d="M0 132L11.5 127.3C23 122.7 46 113.3 69 108.8C92 104.3 115 104.7 138.2 107.8C161.3 111 184.7 117 207.8 121C231 125 254 127 277 126.7C300 126.3 323 123.7 346 122C369 120.3 392 119.7 415.2 120C438.3 120.3 461.7 121.7 484.8 121.5C508 121.3 531 119.7 554 116.7C577 113.7 600 109.3 623 108.5C646 107.7 669 110.3 692.2 110.5C715.3 110.7 738.7 108.3 761.8 109.5C785 110.7 808 115.3 831 120.2C854 125 877 130 888.5 132.5L900 135L900 151L888.5 151C877 151 854 151 831 151C808 151 785 151 761.8 151C738.7 151 715.3 151 692.2 151C669 151 646 151 623 151C600 151 577 151 554 151C531 151 508 151 484.8 151C461.7 151 438.3 151 415.2 151C392 151 369 151 346 151C323 151 300 151 277 151C254 151 231 151 207.8 151C184.7 151 161.3 151 138.2 151C115 151 92 151 69 151C46 151 23 151 11.5 151L0 151Z" fill="#f7b500"></path><path d="M0 140L11.5 139.8C23 139.7 46 139.3 69 135.8C92 132.3 115 125.7 138.2 125.5C161.3 125.3 184.7 131.7 207.8 134.2C231 136.7 254 135.3 277 131.7C300 128 323 122 346 119.5C369 117 392 118 415.2 119.8C438.3 121.7 461.7 124.3 484.8 125.8C508 127.3 531 127.7 554 129.2C577 130.7 600 133.3 623 135.5C646 137.7 669 139.3 692.2 139.3C715.3 139.3 738.7 137.7 761.8 134.5C785 131.3 808 126.7 831 123.7C854 120.7 877 119.3 888.5 118.7L900 118L900 151L888.5 151C877 151 854 151 831 151C808 151 785 151 761.8 151C738.7 151 715.3 151 692.2 151C669 151 646 151 623 151C600 151 577 151 554 151C531 151 508 151 484.8 151C461.7 151 438.3 151 415.2 151C392 151 369 151 346 151C323 151 300 151 277 151C254 151 231 151 207.8 151C184.7 151 161.3 151 138.2 151C115 151 92 151 69 151C46 151 23 151 11.5 151L0 151Z" fill="#f9c000"></path><path d="M0 146L11.5 143.7C23 141.3 46 136.7 69 136.5C92 136.3 115 140.7 138.2 139.8C161.3 139 184.7 133 207.8 133.3C231 133.7 254 140.3 277 141C300 141.7 323 136.3 346 135.5C369 134.7 392 138.3 415.2 140C438.3 141.7 461.7 141.3 484.8 140.8C508 140.3 531 139.7 554 138C577 136.3 600 133.7 623 133C646 132.3 669 133.7 692.2 134.7C715.3 135.7 738.7 136.3 761.8 136.7C785 137 808 137 831 138.8C854 140.7 877 144.3 888.5 146.2L900 148L900 151L888.5 151C877 151 854 151 831 151C808 151 785 151 761.8 151C738.7 151 715.3 151 692.2 151C669 151 646 151 623 151C600 151 577 151 554 151C531 151 508 151 484.8 151C461.7 151 438.3 151 415.2 151C392 151 369 151 346 151C323 151 300 151 277 151C254 151 231 151 207.8 151C184.7 151 161.3 151 138.2 151C115 151 92 151 69 151C46 151 23 151 11.5 151L0 151Z" fill="#fbcb04"></path></svg>