<svg version="1.1" xmlns="http://www.w3.org/2000/svg" xmlns:xlink="http://www.w3.org/1999/xlink" x="0" y="0" viewBox="0 0 285 200" xml:space="preserve">

<g>
	<pattern id="water-red" width=".25" height="1.8" patternContentUnits="objectBoundingBox">
		<path fill="#dd2528" d="M0.25,1.7 h-0.25 v-1.5 c0.083,-0.103 0.158,0.134 0.25,0z"/>
	</pattern>
	<pattern id="water-blue" width=".25" height="1.8" patternContentUnits="objectBoundingBox">
		<path fill="#4990c5" d="M0.25,1.7 h-0.25 v-1.5 c0.083,-0.103 0.158,0.134 0.25,0z"/>
	</pattern>

	<path class="cls-2" d="M110.43,2q.93,0,1.89.07c4.11.32,6,1.9,6.92,5.92a16.57,16.57,0,0,1-.92,9.1c-1.48,4.32-2.73,8.59-2.52,13.26.15,3.57-3.21,6.76-6.95,7.25a6,6,0,0,1-.77.05c-1.94,0-2.83-1.14-2.51-3.34a12.5,12.5,0,0,1,5.55-9c3.89-2.57,4.94-6.36,4.59-10.66-.23-2.83-2.86-4.62-6.12-4.62a9.28,9.28,0,0,0-1.06.06,30.34,30.34,0,0,0-13.13,5A140.49,140.49,0,0,0,57.74,51C42.8,71.7,29.41,93.27,19.35,116.78c-3.85,9-5.88,18.34-4,28.16,1,5,4.13,8,8.07,8a8.18,8.18,0,0,0,1-.06A10.64,10.64,0,0,0,28.84,151c7-4.49,13.18-9.94,17.69-16.81A293.83,293.83,0,0,1,69.7,104.26c13.27-15.44,23.54-33,33.59-50.58a51.24,51.24,0,0,1,3.64-5.75A9.21,9.21,0,0,1,121,48c1.78,2.39,1.05,4.85-.49,7.08-3.43,5-6.35,10.15-7.66,16.13a35.75,35.75,0,0,0-.83,9.47c.07,1.48-.21,2.62-1.67,3.38a6.73,6.73,0,0,0-3.65,5.75c-.26,4.19-2.26,7.82-3.27,11.73A130.5,130.5,0,0,0,100.45,117c-.81,7.25-1.37,2.75,0,8.4,1.12,4.72,3.2,5,6.15,5h1.85c4,.05,2,3.29,2,3.29s-10.06,12.8-14.2,14.15a10,10,0,0,1-2.72.62c-1.24,0-1.19-.94-1.8-2.52-.9-2.32-5.34-12.2-5.56-22.07s-.5-16.84,1-24.77c.16-.86.7-1.88-.45-2.4a1.36,1.36,0,0,0-.56-.13c-.73,0-1.09.79-1.56,1.35A492.87,492.87,0,0,0,53.92,139,91.69,91.69,0,0,1,36.1,158.52a24.78,24.78,0,0,1-16.18,5.95q-1.13,0-2.3-.1C9.77,163.72,2.71,156,2.17,146.81c-.91-15.25,2-30,6.75-44.38,6.63-19.88,17.84-37.08,31.72-52.62,15-16.74,31.84-31.11,51.58-42C98,4.69,103.78,2,110.43,2M221.67,13.51c4.77,0,9.55.21,14.33.69a102.9,102.9,0,0,1,31.78,8.05,28.82,28.82,0,0,1,7.53,4.85c7.7,6.87,8.29,16.73,1.46,24.46-5.16,5.84-12,9-19.06,11.76-12.77,4.92-26.18,7.28-39.55,9.82-12.21,2.32-24.4,4.72-36.59,7.07a8,8,0,0,0-5.66,4.69c-1.52,3-3,6-4.41,9.05a51.14,51.14,0,0,1-7.44,12.32c-2.05,2.37-1.87,3.41.6,5.43L225,161.19q13.19,10.82,26.35,21.66c2.57,2.12,5,4.34,3.75,8.28a4.24,4.24,0,0,1-2.4,2.77,21.9,21.9,0,0,1-8.8,2.12,15.55,15.55,0,0,1-10.66-4.39c-6.46-5.8-11.93-12.49-18-18.68-16.44-16.9-33.59-33.07-50.32-49.67-1.63-1.61-2.71-2.43-3.67-2.43-1.12,0-2.08,1.11-3.56,3.37-3,4.64-6.07,9.28-8,14.53l-1.16,4.16c-.23,5.78-1.27,11-1.26,16.37a2.93,2.93,0,0,1-2.93,2.76c-1.19.1-2.38.17-3.56.17a20.25,20.25,0,0,1-9.18-1.92c-1.51-.75-2.5-1.8-1-3.34l-.4-18c1.28-5.85,4.12-11,7.09-16.13,5.26-9,10.68-18,16.12-26.88a34.5,34.5,0,0,1,3.32-4c.86-1,2-1.94,1.25-3.56a2.26,2.26,0,0,0-2.38-1.23h-1c-.24,0-.48.06-.72.06h-.07c-1,0-2.18,0-2.53-1.11s.94-1.38,1.63-1.84c3.47-2.3,6.78-5,11.21-5.24,1-.06,1.41-1,1.87-1.83,5.49-9.24,9.37-19.25,13.83-29,1-2.26.53-4.84,0-7.26-.8-3.73-.31-4.7,2.87-4.7l1.08,0a29.31,29.31,0,0,1,8.82,1.49c3.28,1.21,4.15,2.8,2.88,6.13-2.81,7.38-5.81,14.68-8.72,22-.23.58-.41,1.19-.79,2.29L197.64,66c19.13-3.77,38.21-7.76,56.69-14.16a30.73,30.73,0,0,0,7.39-3.41c5.83-4,6.82-10.87,2.36-16.33-4-5-9.68-6.9-15.65-8.08a128.11,128.11,0,0,0-24.78-2.16c-4.59,0-9.19.17-13.79.41a7.86,7.86,0,0,0-2.86.79,7.06,7.06,0,0,1-2.93.84,3.67,3.67,0,0,1-2.77-1.34,2.57,2.57,0,0,0-2-.72c-.46,0-.93,0-1.37.07A236.32,236.32,0,0,0,155,27.31,42.62,42.62,0,0,0,143.5,32.1a9.32,9.32,0,0,0-3.85,4.1C138.27,39,133.32,41,129.34,41a7.31,7.31,0,0,1-3.72-.85c-1.69-1-1.37-2.31-.47-3.71a24.33,24.33,0,0,1,16.53-11.39c15-2.9,29.82-6.31,44.9-8.54a240.54,240.54,0,0,1,35.1-3M110.43,0h0c-6.72,0-12.52,2.44-19.17,6.09C72.42,16.44,55.37,30.31,39.14,48.48,23.73,65.73,13.23,83.17,7,101.8,1.57,118.14-.67,132.9.17,146.93c.6,10,8.35,18.69,17.3,19.43.83.07,1.65.1,2.46.1a26.79,26.79,0,0,0,17.45-6.41,93.86,93.86,0,0,0,18.2-19.9c9.82-14.62,19.39-27.53,29.2-39.4-1.05,6.83-.91,13-.71,21.37l0,1.81c.21,9.28,3.95,18.44,5.35,21.89l.35.86c.12.31.21.6.3.85.33,1,1,2.95,3.37,2.95a11.22,11.22,0,0,0,3.34-.72c4.49-1.46,13.42-12.6,15.16-14.82l.07-.09.06-.1c.25-.4,1.42-2.49.38-4.38-.48-.87-1.56-1.92-4-2h-1.88c-2.46,0-3.38,0-4.21-3.48-.26-1.07-.44-1.78-.57-2.28-.07-.26-.13-.51-.17-.65l0-.12a30.27,30.27,0,0,0,.78-4.66,129.2,129.2,0,0,1,2.89-15.2c.34-1.33.81-2.63,1.3-4a29.21,29.21,0,0,0,2-8.1,4.74,4.74,0,0,1,2.58-4.1A5.17,5.17,0,0,0,114,80.58a33.52,33.52,0,0,1,.79-8.94c1.36-6.22,4.64-11.51,7.35-15.42,3-4.29,1.88-7.49.45-9.41a11.2,11.2,0,0,0-17.22-.09,52.61,52.61,0,0,0-3.79,6C91.36,70.57,81.14,87.87,68.19,103a295.12,295.12,0,0,0-23.32,30.12c-4,6.08-9.59,11.39-17.1,16.23a8.7,8.7,0,0,1-3.63,1.59,6.2,6.2,0,0,1-.74,0c-3.07,0-5.35-2.38-6.11-6.37-1.61-8.46-.37-17,3.89-27,9-21,21.11-41.76,38.18-65.37A139.23,139.23,0,0,1,96.48,16.74a28.23,28.23,0,0,1,12.27-4.66,7.31,7.31,0,0,1,.83,0c1.94,0,4,.86,4.13,2.78.33,4.14-.84,6.95-3.7,8.83A14.42,14.42,0,0,0,103.59,34a5,5,0,0,0,.94,4.18,4.45,4.45,0,0,0,3.54,1.45,8,8,0,0,0,1-.07c5-.65,8.88-4.83,8.69-9.31s1.09-8.65,2.42-12.53a18.58,18.58,0,0,0,1-10.18c-1.07-4.86-3.68-7.1-8.72-7.48-.68-.05-1.37-.08-2-.08ZM221.67,11.51h0a238.31,238.31,0,0,0-35.39,3c-10.59,1.56-21.21,3.74-31.49,5.84-4.42.9-9,1.84-13.5,2.71a26.19,26.19,0,0,0-17.83,12.27,5.09,5.09,0,0,0-1,3.87,4.2,4.2,0,0,0,2.08,2.63A9.13,9.13,0,0,0,129.34,43c4.51,0,10.28-2.21,12.11-5.91a7.29,7.29,0,0,1,3-3.25,40.38,40.38,0,0,1,11-4.58A233.52,233.52,0,0,1,198,23.93l.55,0c.24,0,.49,0,.74,0s.52,0,.55.08a5.66,5.66,0,0,0,4.24,2,8.92,8.92,0,0,0,3.78-1,5.89,5.89,0,0,1,2.11-.6c5.24-.28,9.59-.41,13.68-.41A126.11,126.11,0,0,1,248.06,26c5,1,10.6,2.62,14.48,7.38a9.29,9.29,0,0,1,2.25,7.18,9.27,9.27,0,0,1-4.19,6.24A29.34,29.34,0,0,1,253.68,50c-18.39,6.37-37.18,10.3-56.42,14.09l-7.73,1.51-.39.08L191.4,60c2-5,4.08-10.17,6-15.31a7,7,0,0,0,.24-5.34c-.88-1.93-2.88-2.85-4.3-3.38A31.23,31.23,0,0,0,184,34.37l-1.17,0c-1.55,0-3.28.18-4.36,1.52-1.22,1.51-.89,3.59-.46,5.6.52,2.42.86,4.4.13,6-1.17,2.56-2.32,5.17-3.43,7.7a193.54,193.54,0,0,1-10.3,21.1l-.21.37c-.09.15-.2.36-.3.5-4.3.34-7.53,2.54-10.66,4.66l-1.31.88-.31.15c-2.41,1.13-2.49,2.77-2.13,3.94.73,2.39,3.08,2.47,4.09,2.51H154a4.84,4.84,0,0,0,.6,0l.14,0h1a2.52,2.52,0,0,1,.54,0l0,.07a.59.59,0,0,1,.06.15,5.84,5.84,0,0,1-.63.78l-.41.46c-.33.4-.69.78-1.07,1.19a19.38,19.38,0,0,0-2.42,3c-4.94,8.11-10.67,17.55-16.14,26.91-3,5.08-6,10.56-7.31,16.71l-.05.23V139l.39,17.2a3.53,3.53,0,0,0-.71,2.69c.32,1.92,2.19,2.85,2.81,3.15a22.23,22.23,0,0,0,10.07,2.12c1.14,0,2.36-.06,3.73-.17a4.89,4.89,0,0,0,4.76-4.76,79.87,79.87,0,0,1,.62-8.57c.26-2.4.52-4.88.64-7.48l1.07-3.85c1.83-5,4.67-9.3,7.68-13.91l.09-.14a9.21,9.21,0,0,1,1.93-2.45,8.59,8.59,0,0,1,2.22,1.84c6.16,6.11,12.48,12.26,18.59,18.21,10.49,10.21,21.33,20.77,31.7,31.43,2.13,2.19,4.24,4.5,6.28,6.73,3.71,4.06,7.55,8.26,11.77,12a17.44,17.44,0,0,0,12,4.91,23.71,23.71,0,0,0,9.61-2.29,6.19,6.19,0,0,0,3.49-4c1.77-5.38-1.93-8.43-4.37-10.45-7.85-6.49-15.86-13.05-23.6-19.4l-2.76-2.26L199,137.32l-33.11-27.15a5.11,5.11,0,0,1-1.26-1.27,4.56,4.56,0,0,1,.91-1.31,53,53,0,0,0,7.74-12.79c1.27-2.76,2.71-5.7,4.38-9,1.1-2.15,2.41-3.27,4.26-3.63l13.54-2.62c7.55-1.47,15.36-3,23.05-4.44l2.46-.46c12.43-2.35,25.28-4.78,37.43-9.45,7.06-2.72,14.35-6.09,19.84-12.3,7.51-8.51,6.85-19.72-1.62-27.28a31,31,0,0,0-8.05-5.19,104.21,104.21,0,0,0-32.4-8.22c-4.64-.47-9.53-.7-14.53-.7Z"/>
	<path id="red" d="M243.9,197a16.48,16.48,0,0,1-11.32-4.65c-4.19-3.75-8-7.93-11.7-12-2-2.24-4.16-4.55-6.3-6.75-10.38-10.68-21.23-21.24-31.73-31.46-6.11-5.95-12.42-12.09-18.58-18.2-1-1-2.25-2.14-3-2.14s-1.73,1.4-2.72,2.92l-.09.13c-2.92,4.47-5.95,9.1-7.81,14.19l-1.1,4c-.11,2.61-.37,5.11-.63,7.54a80.46,80.46,0,0,0-.62,8.68,3.92,3.92,0,0,1-3.84,3.76c-1.34.12-2.54.17-3.65.17h0a21,21,0,0,1-9.62-2c-1.37-.68-2.11-1.47-2.26-2.42a2.68,2.68,0,0,1,.73-2.19l-.4-17.67,0-.12c1.31-6,4.27-11.41,7.2-16.42,5.44-9.33,11.18-18.77,16.13-26.9a18.56,18.56,0,0,1,2.3-2.86c.37-.4.75-.81,1.1-1.23l.39-.44c.84-.94,1.09-1.31.73-2-.26-.53-.56-.67-1.48-.67h-1l-.25,0a4,4,0,0,1-.48,0h-.39c-1,0-2.64-.09-3.17-1.8s1-2.45,1.59-2.74a3.4,3.4,0,0,0,.44-.22l1.32-.89c3.07-2.09,6.24-4.25,10.39-4.51.3,0,.51-.33.88-1l.2-.35a194.32,194.32,0,0,0,10.36-21.21c1.13-2.57,2.25-5.14,3.42-7.69.86-1.89.48-4.12-.06-6.63-.47-2.16-.58-3.71.26-4.76s2.27-1.15,3.58-1.15l1.12,0A30.35,30.35,0,0,1,193,36.91c2,.74,3.19,1.64,3.74,2.86s.46,2.65-.27,4.57c-2,5.13-4,10.3-6,15.3q-1.35,3.36-2.69,6.72c-.08.2-.15.39-.23.61l2.29-.45L197.45,65c19.28-3.8,38.11-7.74,56.56-14.13a30.19,30.19,0,0,0,7.16-3.3,10.25,10.25,0,0,0,4.62-6.92,10.27,10.27,0,0,0-2.46-8c-4.08-5-9.91-6.71-15.06-7.73a127.09,127.09,0,0,0-24.58-2.14c-4.11,0-8.47.13-13.73.41a6.79,6.79,0,0,0-2.48.69,8,8,0,0,1-3.35.94,4.7,4.7,0,0,1-3.5-1.66,1.6,1.6,0,0,0-1.28-.4c-.27,0-.54,0-.8,0l-.53,0a234.43,234.43,0,0,0-42.72,5.35A41.3,41.3,0,0,0,144,33a8.35,8.35,0,0,0-3.44,3.67C138.91,40,133.46,42,129.34,42a8.27,8.27,0,0,1-4.24-1,3.24,3.24,0,0,1-1.62-2,4.18,4.18,0,0,1,.82-3.1,25.23,25.23,0,0,1,17.18-11.83c4.5-.87,9.08-1.81,13.5-2.71,10.27-2.1,20.88-4.27,31.44-5.83a237.34,237.34,0,0,1,35.25-3c5,0,9.82.23,14.43.7a103.24,103.24,0,0,1,32.09,8.13,30,30,0,0,1,7.79,5c8.16,7.28,8.78,17.68,1.54,25.87-5.34,6.05-12.51,9.36-19.45,12-12.08,4.65-24.88,7.07-37.26,9.41l-2.45.46q-11.53,2.19-23.05,4.44l-13.54,2.62c-2.15.42-3.73,1.74-5,4.16-1.68,3.3-3.12,6.25-4.4,9a52.13,52.13,0,0,1-7.59,12.56c-.83,1-1.2,1.61-1.16,2s.54,1.06,1.63,2l62.84,51.52q11.95,9.8,23.87,19.62c2.37,2,5.61,4.64,4.06,9.37a5.25,5.25,0,0,1-2.94,3.38A22.74,22.74,0,0,1,243.9,197Zm-224-31.57c-.78,0-1.58,0-2.38-.1-8.46-.7-15.81-9-16.38-18.49C.34,133,2.56,118.33,8,102.12c6.17-18.5,16.61-35.83,31.92-53C56,31.06,73,17.27,91.74,7c6.51-3.58,12.19-6,18.69-6,.65,0,1.32,0,2,.08,4.58.35,6.84,2.29,7.82,6.7a17.66,17.66,0,0,1-.95,9.64c-1.36,4-2.67,8.24-2.47,12.9.17,3.91-3.41,7.71-7.82,8.28a7,7,0,0,1-.9.06,3.5,3.5,0,0,1-2.79-1.1,4.07,4.07,0,0,1-.71-3.38,13.46,13.46,0,0,1,6-9.69c3.19-2.11,4.51-5.21,4.15-9.75-.18-2.18-2.29-3.7-5.13-3.7a8.26,8.26,0,0,0-.95.06,29.21,29.21,0,0,0-12.7,4.82A140.23,140.23,0,0,0,58.55,51.61c-17.11,23.67-29.27,44.5-38.29,65.56-4.28,10-5.58,19-4,27.58.84,4.43,3.56,7.18,7.09,7.18a7,7,0,0,0,.85-.05,9.87,9.87,0,0,0,4-1.74c7.63-4.92,13.33-10.32,17.4-16.52a294.3,294.3,0,0,1,23.25-30c13-15.15,23.26-32.49,33.48-50.42a51.84,51.84,0,0,1,3.71-5.86,10.21,10.21,0,0,1,15.62.08c1.8,2.42,1.64,5.19-.47,8.24-2.76,4-6.1,9.38-7.5,15.78a34.51,34.51,0,0,0-.81,9.21,4.12,4.12,0,0,1-2.21,4.31,5.74,5.74,0,0,0-3.12,4.92,28.45,28.45,0,0,1-2,7.83c-.5,1.4-1,2.72-1.32,4.09a130.48,130.48,0,0,0-2.92,15.34,29.37,29.37,0,0,1-.75,4.52c-.1.39-.1.39.13,1.28.13.49.32,1.2.57,2.26,1,4.06,2.44,4.25,5.18,4.25h1.87c1.58,0,2.64.5,3.15,1.43.79,1.44-.23,3.18-.35,3.38l-.07.09c-1,1.33-10.37,13.08-14.68,14.48a10.46,10.46,0,0,1-3,.67h0c-1.69,0-2.09-1.25-2.42-2.26-.09-.27-.18-.57-.31-.9l-.35-.87C89,142,85.31,133,85.1,123.91l0-1.8c-.21-9.07-.37-15.63,1-23.17,0-.17.08-.35.12-.53a2.58,2.58,0,0,0,.12-.71h0l-.12-.06a.45.45,0,0,0-.15,0,3.06,3.06,0,0,0-.44.54c-.11.16-.23.31-.35.46a489.16,489.16,0,0,0-30.54,41,92.84,92.84,0,0,1-18,19.69A25.81,25.81,0,0,1,19.93,165.46Z"/>
			
	<mask id="red-mask">
		<use x="0" y="0" xlink:href="#red" opacity="1" fill="#fff"/>
	</mask>	
	<g id="red-eff">
		<use x="0" y="0" xlink:href="#red" fill="#fff"/>
		<rect class="water-fill" mask="url(#red-mask)" fill="url(#water-red)" x="-300" y="-75" width="1200" height="280" opacity="0.4">
			<animate attributeType="xml" attributeName="x" from="-300" to="0" repeatCount="indefinite" dur="3s"/>
			<animate id="animation" attributeType="xml" attributeName="y" from="200" to="-75" dur="8s" begin="fade_out.end"/>
		</rect>
		<rect class="water-fill" mask="url(#red-mask)" fill="url(#water-red)" y="-80" width="1600" height="280" opacity="0.4">
			<animate attributeType="xml" attributeName="x" from="-400" to="0" repeatCount="indefinite" dur="4s"/>
			<animate id="animation" attributeType="xml" attributeName="y" from="200" to="-80" dur="8s" begin="fade_out.end"/>
		</rect>
		<rect class="water-fill" mask="url(#red-mask)" fill="url(#water-red)" y="-70" width="800" height="280" opacity="0.4">
			<animate attributeType="xml" attributeName="x" from="-200" to="0" repeatCount="indefinite" dur="2.4s"/>
			<animate id="animation" attributeType="xml" attributeName="y" from="200" to="-70" dur="8s" begin="fade_out.end"/>
		</rect>
		<rect class="water-fill" mask="url(#red-mask)" fill="url(#water-red)" y="-70" width="2000" height="280" opacity="0.4">
			<animate attributeType="xml" attributeName="x" from="-500" to="0" repeatCount="indefinite" dur="3.8s"/>
			<animate id="animation" attributeType="xml" attributeName="y" from="200" to="-70" dur="8s" begin="fade_out.end"/>
		</rect>
	</g>
	
	<path class="cls-2" d="M155.92,65.24c1.81,0,3.28,1.14,4.43,3.39,3,5.79,2.1,8.7-3.76,11.59s-9.88,7.15-11.8,13.23c-3.32,10.53-8.72,20.11-13.31,30.06A50.14,50.14,0,0,0,127,136.3c-.52,3.18.84,5,3.62,5a7.74,7.74,0,0,0,1.37-.13c3.74-.68,7.57-.89,11.15-2.32a2,2,0,0,1,.76-.17c.89,0,1.28.85,1.69,1.63.76,1.46,0,2.41-1.13,3.19a106.08,106.08,0,0,0-13.73,11.17,107.49,107.49,0,0,0-10,10.77c-.65.81-1.29,1.53-2.3,1.53a2.73,2.73,0,0,1-.9-.17c-1.56-.54-2.82-1.17-2.9-3.1a6.93,6.93,0,0,0-2.48-5.26c-1.51-1.26-1.39-2.62-.24-4,1-1.19,2-2.36,3-3.53,2.5-2.94,4.23-6.12,3.22-10.19-.15-.61-.06-1.47-.67-1.69a.88.88,0,0,0-.31-.06c-.62,0-.93.77-1.33,1.18A161.34,161.34,0,0,1,99,155.34a28.22,28.22,0,0,1-17.35,6.13,29.06,29.06,0,0,1-3.27-.19c-4-.45-5.33-2-5.29-6.62a15.66,15.66,0,0,1,1.27-6.09c5.85-13.89,13.72-26.42,25.23-36.36,5.27-4.55,11.21-7.54,18.13-7.54a24.89,24.89,0,0,1,3,.19,13.89,13.89,0,0,1,3.13.85,4,4,0,0,0,1.36.29c1.19,0,1.8-.88,2-2.42,1.67-11.87,7.43-21.66,15.57-30.17a41.07,41.07,0,0,1,9.88-7.2,6.62,6.62,0,0,1,3.18-1M94,150.71c1.77,0,3.26-1.12,4.72-2.18a45,45,0,0,0,4.55-3.87,77.87,77.87,0,0,0,17.49-24.06c1.67-3.62.53-5.64-3.36-6.51a13.45,13.45,0,0,0-3-.34,12.11,12.11,0,0,0-8.15,3.25,70.11,70.11,0,0,0-14,16.9,17.55,17.55,0,0,0-2.59,9.85c.29,2.72-.34,5.22,2.33,6.48a4.62,4.62,0,0,0,2,.47m61.89-87.48a8.6,8.6,0,0,0-4.15,1.22A43.52,43.52,0,0,0,141.42,72c-9.23,9.65-14.5,19.88-16.1,31.27a3.09,3.09,0,0,1-.16.69,2.64,2.64,0,0,1-.53-.15,15.92,15.92,0,0,0-3.59-1,27,27,0,0,0-3.29-.2c-6.83,0-13.19,2.63-19.44,8-10.73,9.27-19.15,21.4-25.76,37.1a17.74,17.74,0,0,0-1.43,6.88c0,5.54,2,8,7.07,8.6a31.21,31.21,0,0,0,3.5.2,30.28,30.28,0,0,0,18.56-6.54,155.46,155.46,0,0,0,16.14-14.51c.22,2.33-.71,4.5-3,7.21l-.79.93c-.73.86-1.49,1.74-2.22,2.63-1.93,2.35-1.73,5,.51,6.83a5,5,0,0,1,1.76,3.81c.15,3.48,2.92,4.44,4.24,4.9a4.74,4.74,0,0,0,1.55.28,5,5,0,0,0,3.86-2.28,106.08,106.08,0,0,1,9.85-10.57,103.41,103.41,0,0,1,13.46-11c3.22-2.14,2.33-4.76,1.8-5.78l-.06-.12c-.43-.84-1.33-2.59-3.4-2.59a4,4,0,0,0-1.5.31,33.2,33.2,0,0,1-7.6,1.71c-1,.15-2.1.31-3.16.5a5.77,5.77,0,0,1-1,.1,1.86,1.86,0,0,1-1.38-.44,3,3,0,0,1-.26-2.26,48.71,48.71,0,0,1,4.28-12.29c1.27-2.75,2.63-5.54,3.95-8.22,3.45-7,7-14.33,9.45-22.07,1.67-5.29,5.29-9.34,10.78-12,3.53-1.74,5.44-3.54,6.2-5.83s.29-4.91-1.54-8.47-4.43-4.47-6.21-4.47ZM91.71,143.61A15.49,15.49,0,0,1,94,134.94a68.46,68.46,0,0,1,13.63-16.42,10.1,10.1,0,0,1,6.83-2.76,11.51,11.51,0,0,1,2.52.29c1.31.3,2.2.74,2.44,1.23a3.4,3.4,0,0,1-.46,2.5,76.28,76.28,0,0,1-17,23.44,43.53,43.53,0,0,1-4.35,3.7l-.15.11c-1.2.87-2.33,1.69-3.4,1.69a2.65,2.65,0,0,1-1.14-.28c-.86-.41-1-.8-1.08-3,0-.55,0-1.16-.11-1.8Z"/>
	<path id="blue" d="M118.42,168a3.74,3.74,0,0,1-1.23-.22c-1.21-.42-3.45-1.2-3.57-4a5.9,5.9,0,0,0-2.12-4.54c-1.83-1.52-2-3.5-.38-5.43.71-.87,1.45-1.73,2.18-2.58l.82-1c2.89-3.4,3.79-6.18,3-9.3a5.88,5.88,0,0,1-.11-.63l0-.11-.07.1a4.88,4.88,0,0,1-.44.53,160.08,160.08,0,0,1-16.88,15.27,29.31,29.31,0,0,1-18,6.34,30.08,30.08,0,0,1-3.38-.19c-4.55-.51-6.23-2.58-6.18-7.62a16.65,16.65,0,0,1,1.35-6.47C80,132.63,88.35,120.62,99,111.45c6.06-5.24,12.21-7.78,18.79-7.78a26,26,0,0,1,3.17.2,15,15,0,0,1,3.36.91,3,3,0,0,0,1,.23c.28,0,.81,0,1-1.56,1.57-11.18,6.75-21.23,15.84-30.72a42.6,42.6,0,0,1,10.11-7.38,7.62,7.62,0,0,1,3.67-1.1c2.19,0,4,1.32,5.32,3.93,1.69,3.29,2.15,5.67,1.48,7.69S160.3,79.5,157,81.11c-5.74,2.83-9.54,7.08-11.29,12.64-2.42,7.66-6,14.92-9.4,21.93-1.32,2.7-2.68,5.48-4,8.25A49.54,49.54,0,0,0,128,136.47a3.79,3.79,0,0,0,.49,3.07,2.67,2.67,0,0,0,2.14.79,6.78,6.78,0,0,0,1.19-.12c1-.19,2.08-.34,3.12-.49a34,34,0,0,0,7.83-1.77,3.05,3.05,0,0,1,1.13-.24c1.46,0,2.09,1.23,2.51,2l.06.13c.62,1.19.86,2.93-1.47,4.49a104.45,104.45,0,0,0-13.6,11.07,107.17,107.17,0,0,0-9.95,10.67A4,4,0,0,1,118.42,168Zm-3.94-53.25a11.06,11.06,0,0,0-7.49,3,69.47,69.47,0,0,0-13.83,16.66,16.47,16.47,0,0,0-2.45,9.29c.06.55.08,1.15.1,1.73.07,2.14.18,3.2,1.65,3.89a3.63,3.63,0,0,0,1.57.38h0c1.38,0,2.65-.91,4-1.88l.15-.11a44.52,44.52,0,0,0,4.45-3.78,77.29,77.29,0,0,0,17.27-23.75c.67-1.47.83-2.6.45-3.36s-1.44-1.38-3.12-1.76A12.51,12.51,0,0,0,114.48,114.76Z"/>
	
	<mask id="blue-mask">
		<use x="0" y="0" xlink:href="#blue" opacity="1" fill="#fff"/>
	</mask>	
	<g id="blue-eff">
		<use x="0" y="0" xlink:href="#blue" fill="#fff"/>
		<rect class="water-fill" mask="url(#blue-mask)" fill="url(#water-blue)" x="-300" y="20" width="1200" height="160" opacity="0.3">
			<animate attributeType="xml" attributeName="x" from="-300" to="0" repeatCount="indefinite" dur="3s"/>
			<animate id="animation" attributeType="xml" attributeName="y" from="200" to="20" dur="8s" begin="fade_out.end"/>
		</rect>
		<rect class="water-fill" mask="url(#blue-mask)" fill="url(#water-blue)" y="15" width="1600" height="160" opacity="0.3">
			<animate attributeType="xml" attributeName="x" from="-400" to="0" repeatCount="indefinite" dur="4s"/>
			<animate id="animation" attributeType="xml" attributeName="y" from="200" to="15" dur="8s" begin="fade_out.end"/>
		</rect>
		<rect class="water-fill" mask="url(#blue-mask)" fill="url(#water-blue)" y="25" width="800" height="160" opacity="0.3">
			<animate attributeType="xml" attributeName="x" from="-200" to="0" repeatCount="indefinite" dur="2.4s"/>
			<animate id="animation" attributeType="xml" attributeName="y" from="200" to="25" dur="8s" begin="fade_out.end"/>
		</rect>
		<rect class="water-fill" mask="url(#blue-mask)" fill="url(#water-blue)" y="25" width="2000" height="160" opacity="0.3">
			<animate attributeType="xml" attributeName="x" from="-500" to="0" repeatCount="indefinite" dur="3.8s"/>
			<animate id="animation" attributeType="xml" attributeName="y" from="200" to="25" dur="8s" begin="fade_out.end"/>
		</rect>
	</g>
	
	
	<animate id="fade_out" attributeType="xml" attributeName="opacity" from="1" to="0" begin="animation.end;0s" dur="1s"/>
	<animate id="fade_in" attributeType="xml" attributeName="opacity" from="0" to="1" begin="fade_out.end" dur="1s"/>
</g>
</svg>